<svg width="132" height="99" viewBox="0 0 132 99" fill="none" xmlns="http://www.w3.org/2000/svg">
<path d="M66 74.25C61.7384 74.25 57.4767 72.8521 53.8416 70.0193L0 28.1531V86.625C0 93.457 5.54039 99 12.375 99H119.625C126.46 99 132 93.4596 132 86.625V28.1531L78.1688 70.0477C74.5336 72.8578 70.2539 74.25 66 74.25ZM4.19977 20.9602L58.9076 63.525C63.0816 66.7734 68.9287 66.7734 73.1027 63.525L127.811 20.9602C130.221 18.8977 132 15.7266 132 12.375C132 5.54039 126.457 0 119.625 0H12.375C5.54039 0 0 5.54039 0 12.375C0 15.7266 1.54945 18.8977 4.19977 20.9602Z" fill="#3A6CF4"/>
</svg>
