<svg width="120" height="160" viewBox="0 0 120 160" fill="none" xmlns="http://www.w3.org/2000/svg">
<path d="M4.375 29.9351C4.375 13.4024 17.7774 0 34.3103 0H85.6753C102.208 0 115.611 13.4024 115.611 29.9351C115.611 40.4037 110.237 49.6175 102.097 54.9678C110.237 60.3184 115.611 69.5319 115.611 80.0006C115.611 96.5334 102.208 109.936 85.6753 109.936H85.0253C77.2747 109.936 70.2119 106.99 64.8956 102.157V129.74C64.8956 146.493 51.1428 160 34.4716 160C17.98 160 4.375 146.638 4.375 130.065C4.375 119.597 9.74828 110.383 17.8873 105.033C9.74828 99.6822 4.375 90.4688 4.375 80.0006C4.375 69.5319 9.74875 60.3184 17.8883 54.9678C9.74875 49.6175 4.375 40.4037 4.375 29.9351ZM55.09 59.8709H34.3103C23.1929 59.8709 14.1806 68.8834 14.1806 80.0006C14.1806 91.075 23.1234 100.061 34.1816 100.13C34.2244 100.13 34.2672 100.13 34.3103 100.13H55.09V59.8709ZM64.8956 80.0006C64.8956 91.1178 73.9078 100.13 85.0253 100.13H85.6753C96.7928 100.13 105.805 91.1178 105.805 80.0006C105.805 68.8834 96.7928 59.8709 85.6753 59.8709H85.0253C73.9078 59.8709 64.8956 68.8834 64.8956 80.0006ZM34.3103 109.936C34.2672 109.936 34.2244 109.936 34.1816 109.936C23.1234 110.005 14.1806 118.99 14.1806 130.065C14.1806 141.141 23.3133 150.194 34.4716 150.194C45.8097 150.194 55.09 140.996 55.09 129.74V109.936H34.3103ZM34.3103 9.80556C23.1929 9.80556 14.1806 18.8179 14.1806 29.9351C14.1806 41.0525 23.1929 50.0647 34.3103 50.0647H55.09V9.80556H34.3103ZM64.8956 50.0647H85.6753C96.7928 50.0647 105.805 41.0525 105.805 29.9351C105.805 18.8179 96.7928 9.80556 85.6753 9.80556H64.8956V50.0647Z" fill="#3A6CF4"/>
</svg>
