<svg width="181" height="241" viewBox="0 0 181 241" fill="none" xmlns="http://www.w3.org/2000/svg">
<path d="M105.583 60.25V0H22.625C10.1294 0 0 10.1154 0 22.5938V218.406C0 230.88 10.1294 241 22.625 241H158.375C170.871 241 181 230.885 181 218.406V75.3125H121.091C112.324 75.3125 105.583 68.5814 105.583 60.25ZM72.6357 166.535C76.3179 170.212 76.3179 176.184 72.6357 179.86C70.7974 181.738 68.3935 182.633 65.9896 182.633C63.5857 182.633 61.1676 181.721 59.3246 179.882L36.6996 157.288C33.0174 153.611 33.0174 147.639 36.6996 143.963L59.3246 121.369C63.0069 117.692 68.9733 117.692 72.6545 121.369C76.3358 125.046 76.3367 131.018 72.6545 134.695L56.7039 150.625L72.6357 166.535ZM144.282 143.941C147.964 147.618 147.964 153.59 144.282 157.267L121.657 179.86C119.818 181.738 117.414 182.633 115.01 182.633C112.607 182.633 110.188 181.721 108.345 179.882C104.663 176.205 104.663 170.233 108.345 166.556L124.296 150.625L108.336 134.696C104.654 131.019 104.654 125.047 108.336 121.371C112.018 117.695 117.985 117.694 121.666 121.371L144.282 143.941ZM120.667 0V60.25H181L120.667 0Z" fill="#3A6CF4"/>
</svg>
