<svg width="34" height="34" viewBox="0 0 34 34" fill="none" xmlns="http://www.w3.org/2000/svg">
<rect x="3" y="3" width="29" height="28" fill="white"/>
<path d="M30.3571 0H3.64286C1.6317 0 0 1.6317 0 3.64286V30.3571C0 32.3683 1.6317 34 3.64286 34H30.3571C32.3683 34 34 32.3683 34 30.3571V3.64286C34 1.6317 32.3683 0 30.3571 0ZM21.0451 29.1201C20.4076 29.2339 20.1723 28.8393 20.1723 28.5129C20.1723 28.1031 20.1875 26.0085 20.1875 24.3161C20.1875 23.1321 19.7929 22.3808 19.3299 21.9862C22.1379 21.675 25.0978 21.2879 25.0978 16.4384C25.0978 15.0571 24.6045 14.3665 23.8 13.4786C23.929 13.1522 24.3616 11.8089 23.671 10.0634C22.6161 9.73705 20.2027 11.4219 20.2027 11.4219C19.2009 11.1411 18.1156 10.9969 17.0455 10.9969C15.9754 10.9969 14.8902 11.1411 13.8884 11.4219C13.8884 11.4219 11.475 9.73705 10.4201 10.0634C9.72946 11.8013 10.1545 13.1446 10.2911 13.4786C9.48661 14.3665 9.10714 15.0571 9.10714 16.4384C9.10714 21.2652 11.9379 21.675 14.746 21.9862C14.3817 22.3125 14.0554 22.8741 13.9415 23.6786C13.2205 24.0049 11.3763 24.5665 10.2759 22.6237C9.58527 21.4246 8.34062 21.3259 8.34062 21.3259C7.11116 21.3107 8.25714 22.1 8.25714 22.1C9.07679 22.4795 9.65357 23.9366 9.65357 23.9366C10.3897 26.1906 13.9112 25.4317 13.9112 25.4317C13.9112 26.4866 13.9263 28.2018 13.9263 28.5129C13.9263 28.8393 13.6987 29.2339 13.0536 29.1201C8.04464 27.4429 4.53839 22.6768 4.53839 17.1062C4.53839 10.1393 9.86607 4.84955 16.833 4.84955C23.8 4.84955 29.4464 10.1393 29.4464 17.1062C29.454 22.6768 26.054 27.4504 21.0451 29.1201ZM13.6 24.483C13.4558 24.5134 13.3192 24.4527 13.304 24.354C13.2888 24.2402 13.3875 24.1415 13.5317 24.1112C13.6759 24.096 13.8125 24.1567 13.8277 24.2554C13.8504 24.354 13.7518 24.4527 13.6 24.483ZM12.879 24.4147C12.879 24.5134 12.7652 24.5969 12.6134 24.5969C12.4464 24.6121 12.3326 24.5286 12.3326 24.4147C12.3326 24.3161 12.4464 24.2326 12.5982 24.2326C12.7424 24.2174 12.879 24.3009 12.879 24.4147ZM11.8393 24.3313C11.8089 24.4299 11.6571 24.4754 11.5281 24.4299C11.3839 24.3996 11.2853 24.2857 11.3156 24.1871C11.346 24.0884 11.4978 24.0429 11.6268 24.0732C11.7786 24.1188 11.8772 24.2326 11.8393 24.3313ZM10.9058 23.9214C10.8375 24.0049 10.6933 23.9897 10.5795 23.8759C10.4656 23.7772 10.4353 23.633 10.5112 23.5647C10.5795 23.4812 10.7237 23.4964 10.8375 23.6103C10.9362 23.7089 10.9741 23.8607 10.9058 23.9214ZM10.2152 23.2308C10.1469 23.2763 10.0179 23.2308 9.93437 23.117C9.85089 23.0031 9.85089 22.8741 9.93437 22.821C10.0179 22.7527 10.1469 22.8058 10.2152 22.9196C10.2987 23.0335 10.2987 23.1701 10.2152 23.2308ZM9.72188 22.4946C9.65357 22.5629 9.53973 22.525 9.45625 22.4491C9.37277 22.3504 9.35759 22.2366 9.42589 22.1835C9.4942 22.1152 9.60804 22.1531 9.69152 22.229C9.775 22.3277 9.79018 22.4415 9.72188 22.4946ZM9.21339 21.933C9.18304 22.0013 9.08437 22.0165 9.00089 21.9634C8.90223 21.9179 8.8567 21.8344 8.88705 21.7661C8.91741 21.7205 9.00089 21.6978 9.09955 21.7357C9.19821 21.7888 9.24375 21.8723 9.21339 21.933Z" fill="#3A6CF4"/>
</svg>
