<svg width="33" height="33" viewBox="0 0 33 33" fill="none" xmlns="http://www.w3.org/2000/svg">
<rect x="3" y="4" width="27" height="25" fill="white"/>
<path d="M16.5 12.5709C15.723 12.5712 14.9635 12.8019 14.3175 13.2338C13.6716 13.6657 13.1682 14.2795 12.8711 14.9974C12.5739 15.7154 12.4963 16.5054 12.6481 17.2674C12.7999 18.0295 13.1742 18.7294 13.7237 19.2788C14.2733 19.8281 14.9734 20.2022 15.7355 20.3537C16.4976 20.5052 17.2875 20.4273 18.0054 20.1298C18.7233 19.8324 19.3368 19.3288 19.7685 18.6827C20.2001 18.0366 20.4305 17.277 20.4305 16.5C20.4298 15.4579 20.0153 14.4588 19.2784 13.7221C18.5414 12.9854 17.5421 12.5713 16.5 12.5709V12.5709ZM25.6862 9.55085C25.4862 9.04395 25.1842 8.58355 24.7988 8.19822C24.4135 7.81289 23.9531 7.51085 23.4462 7.31083C21.8993 6.70018 18.2163 6.83719 16.5 6.83719C14.7837 6.83719 11.1044 6.69502 9.55306 7.31083C9.04616 7.51085 8.58576 7.81289 8.20043 8.19822C7.8151 8.58355 7.51306 9.04395 7.31304 9.55085C6.70313 11.0977 6.8394 14.7844 6.8394 16.4993C6.8394 18.2141 6.70313 21.8964 7.31598 23.4484C7.516 23.9553 7.81805 24.4157 8.20338 24.801C8.58871 25.1864 9.0491 25.4884 9.556 25.6884C11.1029 26.2991 14.7859 26.1621 16.5029 26.1621C18.22 26.1621 21.8979 26.3042 23.4492 25.6884C23.9561 25.4884 24.4165 25.1864 24.8018 24.801C25.1871 24.4157 25.4892 23.9553 25.6892 23.4484C26.3042 21.9015 26.1628 18.2148 26.1628 16.5C26.1628 14.7852 26.3042 11.1036 25.6892 9.55158L25.6862 9.55085ZM16.5 22.5402C15.3054 22.5402 14.1376 22.1859 13.1443 21.5222C12.151 20.8585 11.3768 19.9152 10.9196 18.8115C10.4624 17.7078 10.3428 16.4933 10.5759 15.3216C10.8089 14.1499 11.3842 13.0737 12.2289 12.2289C13.0737 11.3842 14.1499 10.8089 15.3216 10.5759C16.4933 10.3428 17.7078 10.4624 18.8115 10.9196C19.9152 11.3768 20.8585 12.151 21.5222 13.1443C22.1859 14.1376 22.5402 15.3054 22.5402 16.5C22.5411 17.2935 22.3856 18.0794 22.0824 18.8126C21.7792 19.5459 21.3343 20.2121 20.7732 20.7732C20.2121 21.3343 19.5459 21.7792 18.8126 22.0824C18.0794 22.3856 17.2935 22.5411 16.5 22.5402V22.5402ZM22.7892 11.6163C22.5103 11.6164 22.2376 11.5339 22.0057 11.379C21.7737 11.2242 21.5929 11.0041 21.4861 10.7465C21.3793 10.4889 21.3512 10.2054 21.4056 9.93183C21.4599 9.65829 21.5941 9.40701 21.7912 9.20976C21.9884 9.01252 22.2396 8.87817 22.5131 8.82371C22.7866 8.76925 23.0701 8.79712 23.3278 8.90381C23.5854 9.0105 23.8057 9.19121 23.9606 9.42307C24.1156 9.65494 24.1983 9.92755 24.1983 10.2064C24.1991 10.3916 24.1633 10.5751 24.093 10.7465C24.0226 10.9178 23.9192 11.0736 23.7886 11.2048C23.6579 11.3361 23.5026 11.4403 23.3316 11.5114C23.1606 11.5825 22.9773 11.6191 22.7921 11.6192L22.7892 11.6163ZM29.4643 0H3.53571C2.59798 0 1.69866 0.372512 1.03559 1.03559C0.372512 1.69866 0 2.59798 0 3.53571L0 29.4643C0 30.402 0.372512 31.3013 1.03559 31.9644C1.69866 32.6275 2.59798 33 3.53571 33H29.4643C30.402 33 31.3013 32.6275 31.9644 31.9644C32.6275 31.3013 33 30.402 33 29.4643V3.53571C33 2.59798 32.6275 1.69866 31.9644 1.03559C31.3013 0.372512 30.402 0 29.4643 0V0ZM28.2032 21.3616C28.1082 23.2495 27.6773 24.9224 26.2991 26.2969C24.9209 27.6714 23.2495 28.1111 21.3638 28.201C19.4184 28.3108 13.586 28.3108 11.6406 28.201C9.75268 28.106 8.08574 27.6743 6.70533 26.2969C5.32493 24.9194 4.89107 23.2458 4.80121 21.3616C4.69145 19.4155 4.69145 13.5823 4.80121 11.6384C4.89623 9.75047 5.32199 8.07763 6.70533 6.70313C8.08868 5.32862 9.76004 4.89402 11.6406 4.80415C13.586 4.6944 19.4184 4.6944 21.3638 4.80415C23.2517 4.89917 24.9238 5.33083 26.2991 6.70828C27.6743 8.08574 28.1133 9.75931 28.2032 11.6472C28.313 13.586 28.313 19.414 28.2032 21.3616Z" fill="#3A6CF4"/>
</svg>
