<svg width="33" height="33" viewBox="0 0 33 33" fill="none" xmlns="http://www.w3.org/2000/svg">
<rect x="3" y="4" width="27" height="25" fill="white"/>
<path d="M30.6429 0H2.34978C1.05335 0 0 1.06808 0 2.37924V30.6208C0 31.9319 1.05335 33 2.34978 33H30.6429C31.9393 33 33 31.9319 33 30.6208V2.37924C33 1.06808 31.9393 0 30.6429 0ZM9.97366 28.2857H5.08259V12.5371H9.98103V28.2857H9.97366ZM7.52812 10.3862C5.95915 10.3862 4.69219 9.11183 4.69219 7.55022C4.69219 5.98862 5.95915 4.71429 7.52812 4.71429C9.08973 4.71429 10.3641 5.98862 10.3641 7.55022C10.3641 9.1192 9.0971 10.3862 7.52812 10.3862V10.3862ZM28.3078 28.2857H23.4167V20.625C23.4167 18.7982 23.3799 16.4484 20.8754 16.4484C18.3268 16.4484 17.9364 18.4373 17.9364 20.4924V28.2857H13.0453V12.5371H17.7375V14.6879H17.8038C18.4594 13.4504 20.0578 12.1467 22.4371 12.1467C27.3871 12.1467 28.3078 15.4098 28.3078 19.6527V28.2857V28.2857Z" fill="#3A6CF4"/>
</svg>
