<svg width="102" height="121" viewBox="0 0 102 121" fill="none" xmlns="http://www.w3.org/2000/svg">
<path d="M101.85 91.4558L97.218 115.276C96.5673 118.644 94.072 121 91.1492 121C40.8836 120.995 0 72.5032 0 12.8806C0 9.41623 1.9862 6.45282 4.82553 5.68479L24.9087 0.190444C27.8335 -0.613504 30.8221 1.18723 32.0374 4.47249L41.3059 30.1128C42.3894 33.1329 41.6586 36.6517 39.5168 38.7265L28.7898 48.9425C35.5599 65.3003 46.773 78.6002 60.5682 86.6349L69.3506 73.9211C71.0816 71.3736 74.0706 70.4921 76.6168 71.8002L98.2341 82.7912C100.834 84.4135 102.528 88.0055 101.85 91.4558Z" fill="#3A6CF4"/>
</svg>
