<svg width="183" height="150" viewBox="9 45 165 130" fill="none" xmlns="http://www.w3.org/2000/svg">
<path d="M66.5995 168.452C64.6264 173.578 57.3736 173.578 55.4005 168.452L11.3114 53.9053C9.79868 49.975 12.6997 45.75 16.911 45.75L105.089 45.75C109.3 45.75 112.201 49.975 110.689 53.9053L66.5995 168.452Z" fill="#E61B1B"/>
<path d="M127.6 168.452C125.626 173.578 118.374 173.578 116.4 168.452L72.3114 53.9053C70.7987 49.975 73.6996 45.75 77.911 45.75L166.089 45.75C170.3 45.75 173.201 49.975 171.689 53.9053L127.6 168.452Z" fill="#4BD6A4"/>
<g clip-path="url(#clip0_2_47)">
<path d="M133.806 93.2231C143.719 93.2231 151.755 84.8405 151.755 74.5C151.755 64.1595 143.719 55.7769 133.806 55.7769C123.894 55.7769 115.858 64.1595 115.858 74.5C115.858 84.8405 123.894 93.2231 133.806 93.2231Z" fill="#D5E2E8"/>
<path d="M133.806 83.7451C138.701 83.7451 142.669 79.6059 142.669 74.5C142.669 69.3941 138.701 65.2549 133.806 65.2549C128.912 65.2549 124.944 69.3941 124.944 74.5C124.944 79.6059 128.912 83.7451 133.806 83.7451Z" fill="#3CC4DC"/>
<path d="M133.806 77.4522C135.369 77.4522 136.637 76.1305 136.637 74.5C136.637 72.8695 135.369 71.5478 133.806 71.5478C132.243 71.5478 130.976 72.8695 130.976 74.5C130.976 76.1305 132.243 77.4522 133.806 77.4522Z" fill="#272828"/>
<path d="M133.806 94C128.813 94 124.119 91.9717 120.588 88.2886C117.057 84.6055 115.113 79.7087 115.113 74.5C115.113 69.2913 117.057 64.3945 120.588 60.7114C124.119 57.0283 128.813 55 133.806 55C138.8 55 143.494 57.0283 147.025 60.7114C150.556 64.3945 152.5 69.2913 152.5 74.5C152.5 79.7087 150.556 84.6055 147.025 88.2886C143.494 91.9717 138.8 94 133.806 94ZM133.806 56.5538C124.32 56.5538 116.602 64.6044 116.602 74.5C116.602 84.3956 124.32 92.4462 133.806 92.4462C143.293 92.4462 151.01 84.3956 151.01 74.5C151.01 64.6044 143.293 56.5538 133.806 56.5538Z" fill="black"/>
<path d="M133.806 84.5219C128.509 84.5219 124.199 80.0261 124.199 74.5C124.199 68.9739 128.509 64.4781 133.806 64.4781C139.104 64.4781 143.414 68.9739 143.414 74.5C143.414 80.0261 139.104 84.5219 133.806 84.5219ZM133.806 66.0319C129.33 66.0319 125.689 69.8307 125.689 74.5C125.689 79.1693 129.33 82.9681 133.806 82.9681C138.283 82.9681 141.924 79.1693 141.924 74.5C141.924 69.8307 138.283 66.0319 133.806 66.0319Z" fill="black"/>
<path d="M133.806 78.2291C131.835 78.2291 130.232 76.5563 130.232 74.5C130.232 72.4437 131.835 70.7709 133.806 70.7709C135.778 70.7709 137.381 72.4437 137.381 74.5C137.381 76.5563 135.778 78.2291 133.806 78.2291ZM133.806 72.3247C132.657 72.3247 131.721 73.3005 131.721 74.5C131.721 75.6995 132.657 76.6753 133.806 76.6753C134.956 76.6753 135.892 75.6995 135.892 74.5C135.892 73.3005 134.956 72.3247 133.806 72.3247Z" fill="black"/>
<path d="M149 75.2769C148.588 75.2769 148.255 74.929 148.255 74.5C148.255 67.7266 143.886 61.7483 137.632 59.9618C137.235 59.8486 137.001 59.4212 137.11 59.0074C137.219 58.5936 137.628 58.3498 138.025 58.4632C144.925 60.434 149.744 67.0286 149.744 74.5C149.744 74.929 149.411 75.2769 149 75.2769Z" fill="black"/>
<path d="M134.85 59.465C134.833 59.465 134.816 59.4645 134.799 59.4634C134.471 59.4401 134.137 59.4283 133.806 59.4283C133.395 59.4283 133.062 59.0804 133.062 58.6514C133.062 58.2224 133.395 57.8745 133.806 57.8745C134.17 57.8745 134.538 57.8874 134.899 57.913C135.31 57.942 135.62 58.3126 135.592 58.7406C135.566 59.1508 135.238 59.465 134.85 59.465Z" fill="black"/>
</g>
<g clip-path="url(#clip1_2_47)">
<path d="M50.1774 93.2231C60.0903 93.2231 68.1262 84.8405 68.1262 74.5C68.1262 64.1595 60.0903 55.7769 50.1774 55.7769C40.2646 55.7769 32.2286 64.1595 32.2286 74.5C32.2286 84.8405 40.2646 93.2231 50.1774 93.2231Z" fill="#D5E2E8"/>
<path d="M50.1774 83.7451C55.0722 83.7451 59.0401 79.6059 59.0401 74.5C59.0401 69.3941 55.0722 65.2549 50.1774 65.2549C45.2827 65.2549 41.3147 69.3941 41.3147 74.5C41.3147 79.6059 45.2827 83.7451 50.1774 83.7451Z" fill="#3CC4DC"/>
<path d="M50.1774 77.4522C51.7404 77.4522 53.0075 76.1305 53.0075 74.5C53.0075 72.8695 51.7404 71.5478 50.1774 71.5478C48.6144 71.5478 47.3473 72.8695 47.3473 74.5C47.3473 76.1305 48.6144 77.4522 50.1774 77.4522Z" fill="#272828"/>
<path d="M50.1774 94C45.1842 94 40.4898 91.9717 36.959 88.2886C33.4283 84.6055 31.4839 79.7087 31.4839 74.5C31.4839 69.2913 33.4283 64.3945 36.959 60.7114C40.4898 57.0283 45.1842 55 50.1774 55C55.1706 55 59.865 57.0283 63.3958 60.7114C66.9265 64.3945 68.871 69.2913 68.871 74.5C68.871 79.7087 66.9265 84.6055 63.3958 88.2886C59.865 91.9717 55.1706 94 50.1774 94ZM50.1774 56.5538C40.6911 56.5538 32.9734 64.6044 32.9734 74.5C32.9734 84.3956 40.6911 92.4462 50.1774 92.4462C59.6637 92.4462 67.3815 84.3956 67.3815 74.5C67.3815 64.6044 59.6637 56.5538 50.1774 56.5538Z" fill="black"/>
<path d="M50.1774 84.5219C44.8798 84.5219 40.57 80.0261 40.57 74.5C40.57 68.9739 44.8798 64.4781 50.1774 64.4781C55.475 64.4781 59.7849 68.9739 59.7849 74.5C59.7849 80.0261 55.475 84.5219 50.1774 84.5219ZM50.1774 66.0319C45.7012 66.0319 42.0595 69.8307 42.0595 74.5C42.0595 79.1693 45.7012 82.9681 50.1774 82.9681C54.6536 82.9681 58.2953 79.1693 58.2953 74.5C58.2953 69.8307 54.6536 66.0319 50.1774 66.0319Z" fill="black"/>
<path d="M50.1774 78.2291C48.2063 78.2291 46.6026 76.5563 46.6026 74.5C46.6026 72.4437 48.2063 70.7709 50.1774 70.7709C52.1486 70.7709 53.7523 72.4437 53.7523 74.5C53.7523 76.5563 52.1486 78.2291 50.1774 78.2291ZM50.1774 72.3247C49.0275 72.3247 48.0921 73.3005 48.0921 74.5C48.0921 75.6995 49.0275 76.6753 50.1774 76.6753C51.3273 76.6753 52.2628 75.6995 52.2628 74.5C52.2628 73.3005 51.3273 72.3247 50.1774 72.3247Z" fill="black"/>
<path d="M65.3706 75.2769C64.9593 75.2769 64.6258 74.929 64.6258 74.5C64.6258 67.7266 60.2574 61.7483 54.0026 59.9618C53.6059 59.8486 53.3723 59.4212 53.481 59.0074C53.5896 58.5936 53.9994 58.3498 54.396 58.4632C61.2961 60.434 66.1153 67.0286 66.1153 74.5C66.1153 74.929 65.7819 75.2769 65.3706 75.2769Z" fill="black"/>
<path d="M51.2208 59.465C51.2038 59.465 51.1869 59.4645 51.1696 59.4634C50.8417 59.4401 50.5078 59.4283 50.1774 59.4283C49.7661 59.4283 49.4327 59.0804 49.4327 58.6514C49.4327 58.2224 49.7661 57.8745 50.1774 57.8745C50.5413 57.8745 50.9091 57.8874 51.2704 57.913C51.6808 57.942 51.9909 58.3126 51.9631 58.7406C51.9365 59.1508 51.6092 59.465 51.2208 59.465Z" fill="black"/>
</g>
<path d="M93.3628 108.165C92.4054 110.799 88.6795 110.798 87.7232 108.164L66.4334 49.5057C65.7233 47.5492 67.1726 45.4818 69.254 45.4822L111.859 45.4916C113.94 45.492 115.388 47.5601 114.677 49.5163L93.3628 108.165Z" fill="#E0FF21"/>
<defs>
<clipPath id="clip0_2_47">
<rect width="37.3871" height="39" fill="white" transform="translate(115.113 55)"/>
</clipPath>
<clipPath id="clip1_2_47">
<rect width="37.3871" height="39" fill="white" transform="translate(31.4839 55)"/>
</clipPath>
</defs>
</svg>
