<svg width="41" height="41" viewBox="0 0 41 41" fill="none" xmlns="http://www.w3.org/2000/svg">
<rect x="3" y="6" width="36" height="28" fill="white"/>
<path d="M17.0955 15.5672L25.808 20.5183L17.0955 25.4694V15.5672ZM41 4.39286V36.6071C41 39.0324 39.0324 41 36.6071 41H4.39286C1.96763 41 0 39.0324 0 36.6071V4.39286C0 1.96763 1.96763 0 4.39286 0H36.6071C39.0324 0 41 1.96763 41 4.39286ZM37.1563 20.5275C37.1563 20.5275 37.1562 15.073 36.4607 12.4556C36.0763 11.0096 34.9507 9.87478 33.5138 9.4904C30.9239 8.78571 20.5 8.78571 20.5 8.78571C20.5 8.78571 10.0761 8.78571 7.48616 9.4904C6.04933 9.87478 4.92366 11.0096 4.53929 12.4556C3.84375 15.0638 3.84375 20.5275 3.84375 20.5275C3.84375 20.5275 3.84375 25.9819 4.53929 28.5993C4.92366 30.0453 6.04933 31.1344 7.48616 31.5187C10.0761 32.2143 20.5 32.2143 20.5 32.2143C20.5 32.2143 30.9239 32.2143 33.5138 31.5096C34.9507 31.1252 36.0763 30.0362 36.4607 28.5902C37.1562 25.9819 37.1563 20.5275 37.1563 20.5275V20.5275Z" fill="#3A6CF4"/>
</svg>
